<svg width="2660" height="1103" viewBox="0 0 2660 1103" fill="none" xmlns="http://www.w3.org/2000/svg">
<g clip-path="url(#clip0_64_2)">
<rect width="2660" height="1103" rx="30" fill="#4804AD"/>
<path d="M1328.39 -414C1271.6 -414 1215.77 -409.752 1160.84 -403.051L1047.83 -110.531C1044.68 -102.363 1044.65 -93.3186 1047.76 -85.1286L1251.85 452.358L1600.07 224.833C1614.17 215.625 1619.93 197.942 1613.95 182.285L1560.75 43.1307C1994.21 147.017 2316.46 533.547 2316.46 995.714C2316.46 1203.66 2249.45 1395.13 2138.22 1553.79L1702.16 412.996C1693.78 391.054 1666.72 382.951 1647.5 396.616L1044.32 825.662L699.206 -77.6504L766.094 -299.723L638.529 -236.414C202.89 4.35936 -92 465.717 -92 995.714C-92 1012.58 -90.279 1028.98 -89.595 1045.66L106.579 1177.75L345.139 1090.83C342.094 1059.48 339.976 1027.87 339.976 995.714C339.976 816.859 389.025 649.937 473.4 505.736L1016.38 1926.06C788.258 1850.74 597.479 1695.15 477.184 1493.22L228.275 1583.9L183.11 1826.49C441.296 2177.05 857.319 2405.43 1328.39 2405.43C1433.88 2405.43 1536.28 2393.21 1635.22 2371.55L1834.14 2318.51L1578.68 2223.74L1195.65 1221.19L1425.98 1046.02C1445.08 1031.49 1472.88 1039.27 1481.51 1061.56L1850.66 2014.45C1854.79 2025.13 1863.83 2033.19 1874.96 2036.15L2181.31 2117.67C2227.83 2082.82 2272.61 2046.28 2312.32 2009.54C2580.87 1753.49 2748.78 1394.62 2748.79 995.714C2748.78 236.812 2144.04 -380.517 1387 -411.263L1385.96 -414L1379.41 -411.602C1362.33 -412.215 1345.63 -414 1328.39 -414Z" fill="#4300A7"/>
<path d="M1256.1 973.949V981.402H1253.73V963H1260.01C1261.6 963 1262.95 963.531 1264.07 964.594C1265.2 965.656 1265.76 966.949 1265.76 968.474C1265.76 970.034 1265.2 971.336 1264.07 972.381C1262.97 973.426 1261.62 973.949 1260.01 973.949H1256.1ZM1256.1 965.262V971.688H1260.06C1261 971.688 1261.78 971.37 1262.4 970.736C1263.03 970.102 1263.35 969.348 1263.35 968.474C1263.35 967.618 1263.03 966.873 1262.4 966.239C1261.78 965.587 1261 965.262 1260.06 965.262H1256.1Z" fill="#F4F4F4"/>
<path d="M1266.2 975.105C1266.2 973.17 1266.81 971.568 1268.02 970.299C1269.26 969.032 1270.81 968.398 1272.67 968.398C1274.54 968.398 1276.09 969.032 1277.3 970.299C1278.54 971.568 1279.15 973.17 1279.15 975.105C1279.15 977.059 1278.54 978.662 1277.3 979.912C1276.09 981.179 1274.54 981.814 1272.67 981.814C1270.81 981.814 1269.26 981.179 1268.02 979.912C1266.81 978.644 1266.2 977.042 1266.2 975.105ZM1268.56 975.105C1268.56 976.459 1268.96 977.556 1269.75 978.395C1270.53 979.235 1271.51 979.655 1272.67 979.655C1273.84 979.655 1274.82 979.235 1275.61 978.395C1276.39 977.556 1276.79 976.459 1276.79 975.105C1276.79 973.769 1276.39 972.681 1275.61 971.841C1274.8 970.985 1273.82 970.557 1272.67 970.557C1271.53 970.557 1270.55 970.985 1269.75 971.841C1268.96 972.681 1268.56 973.769 1268.56 975.105Z" fill="#F4F4F4"/>
<path d="M1298.89 968.808L1294.83 981.402H1292.41L1289.28 971.738L1286.17 981.402H1283.78L1279.72 968.808H1282.18L1284.99 978.318H1285.01L1288.12 968.808H1290.56L1293.67 978.318H1293.7L1296.47 968.808H1298.89Z" fill="#F4F4F4"/>
<path d="M1305.83 981.814C1303.98 981.814 1302.45 981.179 1301.26 979.912C1300.06 978.644 1299.46 977.042 1299.46 975.105C1299.46 973.186 1300.04 971.589 1301.2 970.312C1302.37 969.036 1303.86 968.398 1305.68 968.398C1307.54 968.398 1309.03 969.001 1310.13 970.209C1311.24 971.418 1311.79 973.11 1311.79 975.286L1311.77 975.542H1301.87C1301.91 976.777 1302.32 977.77 1303.11 978.524C1303.89 979.278 1304.84 979.655 1305.93 979.655C1307.44 979.655 1308.62 978.901 1309.48 977.393L1311.59 978.422C1311.02 979.484 1310.24 980.314 1309.24 980.914C1308.23 981.514 1307.1 981.814 1305.83 981.814ZM1302.05 973.589H1309.27C1309.2 972.715 1308.85 971.991 1308.21 971.418C1307.57 970.844 1306.7 970.557 1305.62 970.557C1304.73 970.557 1303.97 970.83 1303.32 971.379C1302.68 971.928 1302.26 972.664 1302.05 973.589Z" fill="#F4F4F4"/>
<path d="M1316.32 981.403H1313.95V968.808H1316.21V970.865H1316.32C1316.56 970.196 1317.05 969.627 1317.79 969.156C1318.54 968.685 1319.27 968.449 1319.99 968.449C1320.68 968.449 1321.26 968.552 1321.74 968.757L1321.02 971.045C1320.73 970.924 1320.27 970.865 1319.63 970.865C1318.74 970.865 1317.97 971.225 1317.31 971.944C1316.65 972.664 1316.32 973.504 1316.32 974.463V981.403Z" fill="#F4F4F4"/>
<path d="M1328.16 981.814C1326.31 981.814 1324.79 981.179 1323.59 979.912C1322.39 978.644 1321.79 977.042 1321.79 975.105C1321.79 973.186 1322.37 971.589 1323.54 970.312C1324.7 969.036 1326.19 968.398 1328.01 968.398C1329.88 968.398 1331.36 969.001 1332.47 970.209C1333.57 971.418 1334.13 973.11 1334.13 975.286L1334.1 975.542H1324.21C1324.24 976.777 1324.65 977.77 1325.44 978.524C1326.23 979.278 1327.17 979.655 1328.27 979.655C1329.77 979.655 1330.96 978.901 1331.81 977.393L1333.92 978.422C1333.36 979.484 1332.57 980.314 1331.57 980.914C1330.57 981.514 1329.43 981.814 1328.16 981.814ZM1324.39 973.589H1331.61C1331.54 972.715 1331.18 971.991 1330.54 971.418C1329.9 970.844 1329.04 970.557 1327.96 970.557C1327.07 970.557 1326.3 970.83 1325.66 971.379C1325.02 971.928 1324.59 972.664 1324.39 973.589Z" fill="#F4F4F4"/>
<path d="M1342.07 979.654C1343.23 979.654 1344.18 979.235 1344.92 978.395C1345.69 977.556 1346.08 976.458 1346.08 975.105C1346.08 973.786 1345.69 972.698 1344.92 971.841C1344.17 970.984 1343.22 970.556 1342.07 970.556C1340.94 970.556 1339.99 970.984 1339.22 971.841C1338.44 972.698 1338.06 973.786 1338.06 975.105C1338.06 976.442 1338.44 977.53 1339.22 978.37C1339.99 979.226 1340.94 979.654 1342.07 979.654ZM1341.68 981.813C1340.04 981.813 1338.62 981.162 1337.44 979.86C1336.28 978.54 1335.69 976.956 1335.69 975.105C1335.69 973.255 1336.28 971.67 1337.44 970.35C1338.62 969.048 1340.04 968.397 1341.68 968.397C1342.61 968.397 1343.45 968.595 1344.21 968.989C1344.98 969.382 1345.56 969.906 1345.97 970.556H1346.08L1345.97 968.808V963H1348.34V981.402H1346.08V979.654H1345.97C1345.56 980.305 1344.98 980.828 1344.21 981.222C1343.45 981.616 1342.61 981.813 1341.68 981.813Z" fill="#F4F4F4"/>
<path d="M1363.53 981.813C1362.6 981.813 1361.76 981.616 1361 981.222C1360.23 980.828 1359.65 980.305 1359.24 979.654H1359.13V981.402H1356.87V963H1359.24V968.808L1359.13 970.556H1359.24C1359.65 969.906 1360.23 969.382 1361 968.989C1361.76 968.595 1362.6 968.397 1363.53 968.397C1365.19 968.397 1366.6 969.048 1367.74 970.35C1368.93 971.67 1369.52 973.255 1369.52 975.105C1369.52 976.973 1368.93 978.558 1367.74 979.86C1366.6 981.162 1365.19 981.813 1363.53 981.813ZM1363.14 979.654C1364.27 979.654 1365.22 979.226 1366 978.37C1366.77 977.53 1367.15 976.442 1367.15 975.105C1367.15 973.786 1366.77 972.698 1366 971.841C1365.22 970.984 1364.27 970.556 1363.14 970.556C1362 970.556 1361.04 970.984 1360.27 971.841C1359.51 972.698 1359.13 973.786 1359.13 975.105C1359.13 976.442 1359.51 977.538 1360.27 978.395C1361.04 979.235 1362 979.654 1363.14 979.654Z" fill="#F4F4F4"/>
<path d="M1382.42 968.808L1374.53 986.953H1372.09L1375.02 980.605L1369.83 968.808H1372.4L1376.15 977.855H1376.2L1379.85 968.808H1382.42Z" fill="#F4F4F4"/>
<path d="M1267.85 999.851L1262.22 1015.38H1273.67L1268.04 999.851H1267.85ZM1257.37 1028.85H1252.46L1265.44 994.416H1270.44L1283.43 1028.85H1278.52L1275.2 1019.52H1260.73L1257.37 1028.85Z" fill="#F4F4F4"/>
<path d="M1286.7 1005.29H1290.93V1008.55H1291.12C1291.79 1007.4 1292.83 1006.44 1294.22 1005.67C1295.62 1004.9 1297.07 1004.52 1298.57 1004.52C1301.46 1004.52 1303.68 1005.34 1305.23 1006.99C1306.79 1008.64 1307.57 1010.99 1307.57 1014.04V1028.85H1303.14V1014.33C1303.05 1010.48 1301.11 1008.55 1297.32 1008.55C1295.56 1008.55 1294.09 1009.27 1292.9 1010.69C1291.71 1012.12 1291.12 1013.83 1291.12 1015.82V1028.85H1286.7V1005.29Z" fill="#F4F4F4"/>
<path d="M1323.34 1025.58C1325.52 1025.58 1327.3 1024.79 1328.68 1023.22C1330.12 1021.65 1330.84 1019.6 1330.84 1017.06C1330.84 1014.6 1330.12 1012.56 1328.68 1010.96C1327.27 1009.36 1325.49 1008.55 1323.34 1008.55C1321.22 1008.55 1319.44 1009.36 1318 1010.96C1316.56 1012.56 1315.84 1014.6 1315.84 1017.06C1315.84 1019.57 1316.56 1021.6 1318 1023.17C1319.44 1024.77 1321.22 1025.58 1323.34 1025.58ZM1322.62 1029.62C1319.54 1029.62 1316.9 1028.4 1314.68 1025.96C1312.5 1023.49 1311.41 1020.53 1311.41 1017.06C1311.41 1013.6 1312.5 1010.64 1314.68 1008.17C1316.9 1005.73 1319.54 1004.51 1322.62 1004.51C1324.35 1004.51 1325.93 1004.88 1327.35 1005.62C1328.78 1006.36 1329.88 1007.34 1330.65 1008.55H1330.84L1330.65 1005.28V994.416H1335.07V1028.85H1330.84V1025.58H1330.65C1329.88 1026.79 1328.78 1027.77 1327.35 1028.51C1325.93 1029.25 1324.35 1029.62 1322.62 1029.62Z" fill="#F4F4F4"/>
<path d="M1344.88 1028.85H1340.46V1005.28H1344.69V1009.13H1344.88C1345.33 1007.88 1346.25 1006.81 1347.65 1005.93C1349.04 1005.05 1350.41 1004.61 1351.76 1004.61C1353.04 1004.61 1354.13 1004.8 1355.03 1005.19L1353.68 1009.47C1353.14 1009.24 1352.27 1009.13 1351.09 1009.13C1349.42 1009.13 1347.97 1009.8 1346.73 1011.15C1345.5 1012.5 1344.88 1014.07 1344.88 1015.86V1028.85Z" fill="#F4F4F4"/>
<path d="M1355.12 1017.07C1355.12 1013.44 1356.26 1010.45 1358.54 1008.07C1360.85 1005.7 1363.75 1004.52 1367.24 1004.52C1370.74 1004.52 1373.62 1005.7 1375.9 1008.07C1378.21 1010.45 1379.36 1013.44 1379.36 1017.07C1379.36 1020.72 1378.21 1023.72 1375.9 1026.06C1373.62 1028.43 1370.74 1029.62 1367.24 1029.62C1363.75 1029.62 1360.85 1028.43 1358.54 1026.06C1356.26 1023.69 1355.12 1020.69 1355.12 1017.07ZM1359.55 1017.07C1359.55 1019.6 1360.29 1021.65 1361.76 1023.22C1363.23 1024.79 1365.06 1025.58 1367.24 1025.58C1369.42 1025.58 1371.25 1024.79 1372.72 1023.22C1374.2 1021.65 1374.94 1019.6 1374.94 1017.07C1374.94 1014.57 1374.2 1012.53 1372.72 1010.96C1371.22 1009.36 1369.39 1008.55 1367.24 1008.55C1365.09 1008.55 1363.27 1009.36 1361.76 1010.96C1360.29 1012.53 1359.55 1014.57 1359.55 1017.07Z" fill="#F4F4F4"/>
<path d="M1388.64 997.158C1388.64 998.023 1388.33 998.76 1387.73 999.369C1387.12 999.979 1386.38 1000.28 1385.51 1000.28C1384.65 1000.28 1383.91 999.979 1383.3 999.369C1382.69 998.76 1382.39 998.023 1382.39 997.158C1382.39 996.292 1382.69 995.554 1383.3 994.945C1383.91 994.336 1384.65 994.032 1385.51 994.032C1386.38 994.032 1387.12 994.336 1387.73 994.945C1388.33 995.554 1388.64 996.292 1388.64 997.158ZM1387.73 1005.28V1028.85H1383.3V1005.28H1387.73Z" fill="#F4F4F4"/>
<path d="M1403.83 1025.58C1406.01 1025.58 1407.79 1024.79 1409.17 1023.22C1410.61 1021.65 1411.34 1019.6 1411.34 1017.06C1411.34 1014.6 1410.61 1012.56 1409.17 1010.96C1407.76 1009.36 1405.98 1008.55 1403.83 1008.55C1401.72 1008.55 1399.94 1009.36 1398.5 1010.96C1397.05 1012.56 1396.33 1014.6 1396.33 1017.06C1396.33 1019.57 1397.05 1021.6 1398.5 1023.17C1399.94 1024.77 1401.72 1025.58 1403.83 1025.58ZM1403.11 1029.62C1400.04 1029.62 1397.39 1028.4 1395.18 1025.96C1393 1023.49 1391.91 1020.53 1391.91 1017.06C1391.91 1013.6 1393 1010.64 1395.18 1008.17C1397.39 1005.73 1400.04 1004.51 1403.11 1004.51C1404.84 1004.51 1406.42 1004.88 1407.85 1005.62C1409.28 1006.36 1410.37 1007.34 1411.14 1008.55H1411.34L1411.14 1005.28V994.416H1415.57V1028.85H1411.34V1025.58H1411.14C1410.37 1026.79 1409.28 1027.77 1407.85 1028.51C1406.42 1029.25 1404.84 1029.62 1403.11 1029.62Z" fill="#F4F4F4"/>
<path d="M967 519.652H984.152V555.988H1022.39V519.652H1039.54V610.619H1022.39V572.25H984.152V610.619H967V519.652Z" fill="#F4F4F4"/>
<path d="M1084.19 546.333C1089.01 546.333 1093.44 547.159 1097.46 548.81C1101.49 550.462 1104.96 552.749 1107.88 555.671C1110.8 558.593 1113.09 562.087 1114.74 566.153C1116.39 570.218 1117.22 574.665 1117.22 579.493C1117.22 584.321 1116.39 588.767 1114.74 592.833C1113.09 596.898 1110.8 600.392 1107.88 603.314C1104.96 606.237 1101.49 608.523 1097.46 610.175C1093.44 611.827 1089.01 612.653 1084.19 612.653C1079.36 612.653 1074.93 611.827 1070.91 610.175C1066.89 608.523 1063.41 606.237 1060.49 603.314C1057.57 600.392 1055.28 596.898 1053.63 592.833C1051.98 588.767 1051.15 584.321 1051.15 579.493C1051.15 574.665 1051.98 570.218 1053.63 566.153C1055.28 562.087 1057.57 558.593 1060.49 555.671C1063.41 552.749 1066.89 550.462 1070.91 548.81C1074.93 547.159 1079.36 546.333 1084.19 546.333ZM1084.19 597.28C1086.3 597.28 1088.36 596.878 1090.35 596.073C1092.34 595.268 1094.1 594.103 1095.62 592.579C1097.15 591.054 1098.35 589.191 1099.24 586.989C1100.13 584.786 1100.58 582.288 1100.58 579.493C1100.58 576.698 1100.13 574.199 1099.24 571.997C1098.35 569.794 1097.15 567.931 1095.62 566.407C1094.1 564.882 1092.34 563.718 1090.35 562.913C1088.36 562.108 1086.3 561.706 1084.19 561.706C1081.99 561.706 1079.91 562.108 1077.96 562.913C1076.01 563.718 1074.28 564.882 1072.75 566.407C1071.23 567.931 1070.02 569.794 1069.13 571.997C1068.24 574.199 1067.8 576.698 1067.8 579.493C1067.8 582.288 1068.24 584.786 1069.13 586.989C1070.02 589.191 1071.23 591.054 1072.75 592.579C1074.28 594.103 1076.01 595.268 1077.96 596.073C1079.91 596.878 1081.99 597.28 1084.19 597.28Z" fill="#F4F4F4"/>
<path d="M1125.53 548.366H1141.15V557.005H1142.17C1142.93 555.48 1143.95 554.083 1145.22 552.812C1146.49 551.542 1147.91 550.441 1149.47 549.509C1151.04 548.577 1152.74 547.857 1154.56 547.349C1156.38 546.841 1158.18 546.587 1159.96 546.587C1162.16 546.587 1164.04 546.798 1165.61 547.222C1167.18 547.646 1168.51 548.196 1169.61 548.874L1165.17 563.993C1164.15 563.484 1163.03 563.082 1161.8 562.786C1160.57 562.489 1159.07 562.341 1157.29 562.341C1155 562.341 1152.93 562.786 1151.06 563.675C1149.2 564.564 1147.61 565.814 1146.3 567.423C1144.99 569.032 1143.97 570.917 1143.25 573.077C1142.53 575.236 1142.17 577.587 1142.17 580.128V610.62H1125.53V548.366Z" fill="#F4F4F4"/>
<path d="M1185.42 539.344C1183.98 539.344 1182.6 539.069 1181.29 538.518C1179.97 537.967 1178.83 537.205 1177.86 536.232C1176.88 535.258 1176.12 534.135 1175.57 532.865C1175.02 531.594 1174.74 530.197 1174.74 528.672C1174.74 527.148 1175.02 525.75 1175.57 524.48C1176.12 523.209 1176.88 522.086 1177.86 521.113C1178.83 520.139 1179.97 519.377 1181.29 518.826C1182.6 518.275 1183.98 518 1185.42 518C1188.38 518 1190.92 519.037 1193.04 521.113C1195.16 523.188 1196.21 525.707 1196.21 528.672C1196.21 531.637 1195.16 534.156 1193.04 536.232C1190.92 538.307 1188.38 539.344 1185.42 539.344ZM1177.16 610.619V548.365H1193.8V610.619H1177.16Z" fill="#F4F4F4"/>
<path d="M1204.9 596.897L1236.66 562.594H1205.92V548.364H1257.12V562.086L1225.36 596.389H1257.63V610.618H1204.9V596.897Z" fill="#F4F4F4"/>
<path d="M1352.88 556.497H1353.9C1355.85 553.363 1358.47 550.886 1361.78 549.065C1365.08 547.243 1368.85 546.333 1373.08 546.333C1376.98 546.333 1380.41 546.968 1383.37 548.239C1386.34 549.509 1388.77 551.309 1390.68 553.638C1392.59 555.968 1394.03 558.763 1395 562.024C1395.97 565.284 1396.46 568.905 1396.46 572.886V610.62H1379.82V574.919C1379.82 570.43 1378.82 567.105 1376.83 564.946C1374.84 562.786 1371.94 561.706 1368.13 561.706C1365.84 561.706 1363.83 562.193 1362.09 563.167C1360.36 564.141 1358.88 565.454 1357.65 567.105C1356.42 568.757 1355.49 570.706 1354.85 572.95C1354.22 575.194 1353.9 577.587 1353.9 580.128V610.62H1337.26V548.366H1352.88V556.497Z" fill="#F4F4F4"/>
<path d="M1415.46 614.984V524.017H1443.28C1457.17 524.017 1468.33 528.209 1476.76 536.594C1485.19 544.98 1489.4 555.949 1489.4 569.5C1489.4 583.137 1485.19 594.127 1476.76 602.469C1468.33 610.812 1457.17 614.984 1443.28 614.984H1415.46ZM1427.15 535.197V603.803H1443.28C1453.87 603.803 1462.21 600.775 1468.31 594.719C1474.41 588.664 1477.46 580.257 1477.46 569.5C1477.46 558.828 1474.41 550.443 1468.31 544.344C1462.21 538.246 1453.87 535.197 1443.28 535.197H1427.15Z" fill="#F4F4F4"/>
<path d="M1509.27 614.983H1497.58V552.729H1508.76V562.893H1509.27C1510.46 559.59 1512.89 556.774 1516.58 554.444C1520.26 552.114 1523.88 550.95 1527.44 550.95C1530.83 550.95 1533.71 551.458 1536.08 552.475L1532.52 563.782C1531.08 563.19 1528.79 562.893 1525.66 562.893C1521.26 562.893 1517.42 564.671 1514.16 568.229C1510.9 571.786 1509.27 575.936 1509.27 580.68V614.983Z" fill="#F4F4F4"/>
<path d="M1535.24 583.856C1535.24 574.284 1538.24 566.366 1544.26 560.097C1550.35 553.829 1558.02 550.696 1567.25 550.696C1576.49 550.696 1584.11 553.829 1590.12 560.097C1596.22 566.366 1599.27 574.284 1599.27 583.856C1599.27 593.511 1596.22 601.431 1590.12 607.614C1584.11 613.882 1576.49 617.015 1567.25 617.015C1558.02 617.015 1550.35 613.882 1544.26 607.614C1538.24 601.346 1535.24 593.427 1535.24 583.856ZM1546.92 583.856C1546.92 590.546 1548.87 595.968 1552.77 600.118C1556.67 604.268 1561.49 606.343 1567.25 606.343C1573.01 606.343 1577.84 604.268 1581.74 600.118C1585.63 595.968 1587.58 590.546 1587.58 583.856C1587.58 577.249 1585.63 571.87 1581.74 567.72C1577.76 563.485 1572.93 561.368 1567.25 561.368C1561.58 561.368 1556.75 563.485 1552.77 567.72C1548.87 571.87 1546.92 577.249 1546.92 583.856Z" fill="#F4F4F4"/>
<path d="M1622.7 531.258C1622.7 533.545 1621.89 535.494 1620.28 537.102C1618.67 538.711 1616.72 539.516 1614.44 539.516C1612.15 539.516 1610.2 538.711 1608.59 537.102C1606.98 535.494 1606.18 533.545 1606.18 531.258C1606.18 528.971 1606.98 527.023 1608.59 525.414C1610.2 523.805 1612.15 523 1614.44 523C1616.72 523 1618.67 523.805 1620.28 525.414C1621.89 527.023 1622.7 528.971 1622.7 531.258ZM1620.28 552.729V614.983H1608.59V552.729H1620.28Z" fill="#F4F4F4"/>
<path d="M1661.75 606.344C1667.51 606.344 1672.21 604.269 1675.85 600.119C1679.66 595.969 1681.57 590.547 1681.57 583.857C1681.57 577.334 1679.66 571.957 1675.85 567.721C1672.12 563.486 1667.42 561.369 1661.75 561.369C1656.16 561.369 1651.45 563.486 1647.64 567.721C1643.83 571.957 1641.93 577.334 1641.93 583.857C1641.93 590.463 1643.83 595.842 1647.64 599.992C1651.45 604.227 1656.16 606.344 1661.75 606.344ZM1659.84 617.016C1651.71 617.016 1644.72 613.797 1638.88 607.361C1633.12 600.838 1630.24 593.004 1630.24 583.857C1630.24 574.709 1633.12 566.875 1638.88 560.353C1644.72 553.916 1651.71 550.697 1659.84 550.697C1664.41 550.697 1668.59 551.671 1672.35 553.619C1676.12 555.567 1679.02 558.15 1681.06 561.369H1681.57L1681.06 552.73V524.017H1692.75V614.984H1681.57V606.344H1681.06C1679.02 609.563 1676.12 612.146 1672.35 614.094C1668.59 616.043 1664.41 617.016 1659.84 617.016Z" fill="#F4F4F4"/>
<path d="M1292.71 550.909C1289.6 551.268 1286.61 551.84 1283.88 552.962C1279.86 554.614 1276.36 556.919 1273.44 559.842C1270.52 562.764 1268.25 566.249 1266.6 570.314C1264.94 574.38 1264.13 578.835 1264.13 583.663C1264.13 588.491 1264.94 592.911 1266.6 596.977C1268.25 601.043 1270.52 604.563 1273.44 607.485C1276.36 610.407 1279.86 612.679 1283.88 614.33C1287.9 615.982 1292.33 616.794 1297.16 616.794C1301.99 616.794 1306.42 615.982 1310.44 614.33C1314.46 612.679 1317.92 610.407 1320.84 607.485C1323.77 604.563 1326.04 601.043 1327.69 596.977C1329.34 592.911 1330.19 588.491 1330.19 583.663C1330.19 578.954 1329.36 574.607 1327.79 570.623C1326.88 572.376 1325.75 574.033 1324.27 575.552C1321.22 578.672 1317.56 580.514 1313.35 581.165C1313.44 581.985 1313.55 582.784 1313.55 583.663C1313.55 586.458 1313.11 588.957 1312.22 591.159C1311.33 593.361 1310.11 595.213 1308.59 596.737C1307.07 598.262 1305.31 599.424 1303.32 600.229C1301.33 601.033 1299.28 601.427 1297.16 601.427C1294.96 601.427 1292.88 601.034 1290.93 600.229C1288.98 599.424 1287.25 598.262 1285.73 596.737C1284.2 595.213 1282.99 593.361 1282.1 591.159C1281.21 588.957 1280.76 586.458 1280.76 583.663C1280.76 580.868 1281.21 578.37 1282.1 576.167C1282.99 573.965 1284.2 572.079 1285.73 570.554C1287.2 569.078 1288.89 567.967 1290.76 567.165C1290.21 565.328 1289.83 563.439 1289.83 561.381C1289.83 557.439 1290.83 553.96 1292.71 550.909Z" fill="#F4F4F4"/>
<path d="M1308.8 583.851C1308.8 587.048 1307.69 589.789 1305.47 592.072C1303.24 594.356 1300.47 595.497 1297.16 595.497C1293.96 595.497 1291.22 594.356 1288.94 592.072C1286.65 589.789 1285.51 587.048 1285.51 583.851C1285.51 580.539 1286.65 577.771 1288.94 575.545C1291.22 573.318 1293.96 572.205 1297.16 572.205C1300.47 572.205 1303.24 573.318 1305.47 575.545C1307.69 577.771 1308.8 580.539 1308.8 583.851Z" fill="#F4F4F4"/>
<path d="M999.095 673.155V669.562H1024.19V673.155H1013.67V703.016H1009.61V673.155H999.095ZM1033.88 703.604C1032.29 703.604 1030.85 703.305 1029.56 702.706C1028.26 702.096 1027.23 701.219 1026.47 700.076C1025.71 698.921 1025.32 697.527 1025.32 695.894C1025.32 694.456 1025.61 693.291 1026.17 692.398C1026.74 691.494 1027.5 690.786 1028.44 690.275C1029.39 689.763 1030.44 689.382 1031.58 689.131C1032.74 688.87 1033.9 688.663 1035.06 688.51C1036.59 688.314 1037.82 688.167 1038.77 688.069C1039.73 687.96 1040.42 687.781 1040.86 687.53C1041.31 687.28 1041.53 686.844 1041.53 686.223V686.093C1041.53 684.481 1041.09 683.229 1040.21 682.336C1039.34 681.443 1038.01 680.996 1036.24 680.996C1034.4 680.996 1032.95 681.399 1031.91 682.205C1030.86 683.011 1030.13 683.871 1029.7 684.786L1026.04 683.479C1026.7 681.955 1027.57 680.768 1028.66 679.918C1029.76 679.058 1030.96 678.459 1032.25 678.121C1033.56 677.773 1034.84 677.598 1036.11 677.598C1036.91 677.598 1037.84 677.697 1038.88 677.893C1039.94 678.078 1040.96 678.464 1041.94 679.052C1042.93 679.64 1043.75 680.528 1044.4 681.715C1045.06 682.902 1045.38 684.492 1045.38 686.485V703.016H1041.53V699.618H1041.33C1041.07 700.163 1040.64 700.746 1040.03 701.366C1039.42 701.987 1038.61 702.515 1037.59 702.951C1036.58 703.386 1035.34 703.604 1033.88 703.604ZM1034.47 700.141C1036 700.141 1037.28 699.842 1038.33 699.243C1039.38 698.644 1040.18 697.871 1040.71 696.923C1041.26 695.976 1041.53 694.979 1041.53 693.934V690.405C1041.37 690.601 1041.01 690.781 1040.45 690.944C1039.91 691.097 1039.28 691.233 1038.56 691.353C1037.85 691.462 1037.16 691.56 1036.48 691.647C1035.82 691.723 1035.28 691.788 1034.86 691.843C1033.86 691.973 1032.93 692.186 1032.06 692.48C1031.19 692.763 1030.5 693.193 1029.96 693.77C1029.44 694.337 1029.18 695.11 1029.18 696.09C1029.18 697.429 1029.68 698.442 1030.67 699.128C1031.67 699.804 1032.94 700.141 1034.47 700.141ZM1056.01 693.868L1055.95 689.098H1056.73L1067.71 677.925H1072.48L1060.78 689.752H1060.46L1056.01 693.868ZM1052.42 703.016V669.562H1056.28V703.016H1052.42ZM1068.36 703.016L1058.56 690.601L1061.31 687.922L1073.26 703.016H1068.36ZM1086.93 703.539C1084.51 703.539 1082.43 703.005 1080.67 701.938C1078.93 700.86 1077.59 699.357 1076.64 697.429C1075.7 695.491 1075.23 693.237 1075.23 690.667C1075.23 688.097 1075.7 685.831 1076.64 683.871C1077.59 681.9 1078.9 680.365 1080.59 679.265C1082.29 678.154 1084.27 677.598 1086.54 677.598C1087.84 677.598 1089.13 677.816 1090.41 678.252C1091.68 678.688 1092.84 679.395 1093.89 680.375C1094.93 681.345 1095.77 682.63 1096.39 684.231C1097.01 685.831 1097.32 687.803 1097.32 690.144V691.777H1077.98V688.445H1093.4C1093.4 687.029 1093.11 685.766 1092.55 684.655C1091.99 683.545 1091.2 682.668 1090.16 682.025C1089.14 681.383 1087.93 681.062 1086.54 681.062C1085 681.062 1083.67 681.443 1082.55 682.205C1081.44 682.956 1080.59 683.937 1079.99 685.145C1079.39 686.354 1079.09 687.65 1079.09 689.033V691.255C1079.09 693.15 1079.41 694.756 1080.07 696.074C1080.73 697.38 1081.65 698.377 1082.83 699.063C1084.01 699.738 1085.37 700.076 1086.93 700.076C1087.94 700.076 1088.86 699.934 1089.67 699.651C1090.5 699.357 1091.21 698.921 1091.81 698.344C1092.41 697.756 1092.88 697.027 1093.2 696.155L1096.93 697.201C1096.53 698.464 1095.88 699.575 1094.95 700.533C1094.02 701.481 1092.88 702.221 1091.52 702.755C1090.16 703.277 1088.63 703.539 1086.93 703.539ZM1127.29 677.925V681.192H1113.77V677.925H1127.29ZM1117.82 703.016V674.462C1117.82 673.025 1118.16 671.827 1118.83 670.868C1119.51 669.91 1120.38 669.191 1121.46 668.712C1122.54 668.233 1123.68 667.993 1124.88 667.993C1125.82 667.993 1126.6 668.07 1127.2 668.222C1127.79 668.375 1128.24 668.516 1128.53 668.647L1127.42 671.979C1127.23 671.914 1126.96 671.832 1126.61 671.734C1126.27 671.636 1125.82 671.587 1125.27 671.587C1123.99 671.587 1123.07 671.908 1122.51 672.551C1121.95 673.193 1121.67 674.135 1121.67 675.377V703.016H1117.82ZM1148.51 692.758V677.925H1152.36V703.016H1148.51V698.769H1148.25C1147.66 700.043 1146.74 701.127 1145.5 702.02C1144.26 702.902 1142.69 703.343 1140.8 703.343C1139.23 703.343 1137.84 703 1136.62 702.314C1135.4 701.617 1134.44 700.571 1133.74 699.177C1133.04 697.773 1132.7 696.003 1132.7 693.868V677.925H1136.55V693.607C1136.55 695.437 1137.06 696.896 1138.09 697.985C1139.12 699.074 1140.44 699.618 1142.04 699.618C1143 699.618 1143.97 699.373 1144.96 698.883C1145.97 698.393 1146.8 697.642 1147.48 696.629C1148.17 695.616 1148.51 694.326 1148.51 692.758ZM1163.28 669.562V703.016H1159.42V669.562H1163.28ZM1174.2 669.562V703.016H1170.34V669.562H1174.2ZM1204.39 703.539C1202.04 703.539 1200.01 702.983 1198.31 701.873C1196.61 700.762 1195.31 699.232 1194.39 697.282C1193.48 695.333 1193.02 693.106 1193.02 690.601C1193.02 688.053 1193.49 685.804 1194.42 683.855C1195.37 681.895 1196.69 680.365 1198.38 679.265C1200.08 678.154 1202.06 677.598 1204.32 677.598C1206.09 677.598 1207.68 677.925 1209.09 678.579C1210.51 679.232 1211.67 680.147 1212.57 681.323C1213.48 682.499 1214.04 683.871 1214.25 685.439H1210.4C1210.1 684.296 1209.45 683.283 1208.44 682.401C1207.44 681.508 1206.09 681.062 1204.39 681.062C1202.88 681.062 1201.57 681.454 1200.43 682.238C1199.31 683.011 1198.44 684.105 1197.8 685.521C1197.18 686.926 1196.87 688.576 1196.87 690.471C1196.87 692.409 1197.18 694.097 1197.79 695.535C1198.41 696.972 1199.28 698.088 1200.4 698.883C1201.53 699.678 1202.86 700.076 1204.39 700.076C1205.39 700.076 1206.3 699.902 1207.12 699.553C1207.93 699.205 1208.62 698.704 1209.19 698.05C1209.76 697.397 1210.16 696.613 1210.4 695.698H1214.25C1214.04 697.179 1213.5 698.513 1212.64 699.7C1211.79 700.876 1210.66 701.813 1209.26 702.51C1207.86 703.196 1206.24 703.539 1204.39 703.539ZM1230.08 703.539C1227.82 703.539 1225.83 703 1224.12 701.922C1222.42 700.844 1221.09 699.335 1220.13 697.397C1219.19 695.458 1218.71 693.193 1218.71 690.601C1218.71 687.988 1219.19 685.706 1220.13 683.757C1221.09 681.808 1222.42 680.294 1224.12 679.216C1225.83 678.138 1227.82 677.598 1230.08 677.598C1232.35 677.598 1234.33 678.138 1236.03 679.216C1237.74 680.294 1239.07 681.808 1240.01 683.757C1240.97 685.706 1241.45 687.988 1241.45 690.601C1241.45 693.193 1240.97 695.458 1240.01 697.397C1239.07 699.335 1237.74 700.844 1236.03 701.922C1234.33 703 1232.35 703.539 1230.08 703.539ZM1230.08 700.076C1231.8 700.076 1233.22 699.635 1234.33 698.753C1235.44 697.871 1236.26 696.711 1236.8 695.273C1237.33 693.836 1237.6 692.278 1237.6 690.601C1237.6 688.924 1237.33 687.362 1236.8 685.913C1236.26 684.465 1235.44 683.294 1234.33 682.401C1233.22 681.508 1231.8 681.062 1230.08 681.062C1228.36 681.062 1226.95 681.508 1225.84 682.401C1224.72 683.294 1223.9 684.465 1223.37 685.913C1222.84 687.362 1222.57 688.924 1222.57 690.601C1222.57 692.278 1222.84 693.836 1223.37 695.273C1223.9 696.711 1224.72 697.871 1225.84 698.753C1226.95 699.635 1228.36 700.076 1230.08 700.076ZM1251.19 687.922V703.016H1247.34V677.925H1251.06V681.846H1251.39C1251.98 680.572 1252.87 679.548 1254.07 678.775C1255.27 677.991 1256.81 677.598 1258.71 677.598C1260.41 677.598 1261.89 677.947 1263.17 678.644C1264.44 679.33 1265.43 680.375 1266.14 681.78C1266.85 683.174 1267.2 684.938 1267.2 687.073V703.016H1263.35V687.334C1263.35 685.363 1262.83 683.828 1261.81 682.728C1260.79 681.617 1259.38 681.062 1257.6 681.062C1256.36 681.062 1255.27 681.328 1254.3 681.862C1253.34 682.396 1252.58 683.174 1252.03 684.198C1251.47 685.222 1251.19 686.463 1251.19 687.922ZM1285.16 677.925V681.192H1272.15V677.925H1285.16ZM1275.94 671.914H1279.8V695.829C1279.8 696.918 1279.96 697.734 1280.27 698.279C1280.6 698.813 1281.01 699.172 1281.51 699.357C1282.03 699.531 1282.57 699.618 1283.13 699.618C1283.56 699.618 1283.9 699.597 1284.18 699.553C1284.45 699.499 1284.67 699.455 1284.83 699.422L1285.61 702.885C1285.35 702.983 1284.99 703.081 1284.52 703.179C1284.05 703.288 1283.46 703.343 1282.74 703.343C1281.65 703.343 1280.58 703.109 1279.54 702.64C1278.5 702.172 1277.64 701.459 1276.96 700.5C1276.28 699.542 1275.94 698.333 1275.94 696.874V671.914ZM1290.96 703.016V677.925H1294.68V681.715H1294.94C1295.4 680.473 1296.23 679.466 1297.42 678.693C1298.62 677.92 1299.97 677.533 1301.48 677.533C1301.76 677.533 1302.11 677.539 1302.54 677.549C1302.96 677.56 1303.28 677.577 1303.5 677.598V681.519C1303.37 681.486 1303.07 681.437 1302.6 681.372C1302.15 681.296 1301.66 681.258 1301.15 681.258C1299.93 681.258 1298.84 681.514 1297.88 682.025C1296.93 682.526 1296.18 683.223 1295.63 684.116C1295.08 684.998 1294.81 686.006 1294.81 687.138V703.016H1290.96ZM1317.5 703.539C1315.24 703.539 1313.25 703 1311.54 701.922C1309.84 700.844 1308.51 699.335 1307.55 697.397C1306.61 695.458 1306.13 693.193 1306.13 690.601C1306.13 687.988 1306.61 685.706 1307.55 683.757C1308.51 681.808 1309.84 680.294 1311.54 679.216C1313.25 678.138 1315.24 677.598 1317.5 677.598C1319.77 677.598 1321.75 678.138 1323.45 679.216C1325.16 680.294 1326.49 681.808 1327.43 683.757C1328.39 685.706 1328.87 687.988 1328.87 690.601C1328.87 693.193 1328.39 695.458 1327.43 697.397C1326.49 699.335 1325.16 700.844 1323.45 701.922C1321.75 703 1319.77 703.539 1317.5 703.539ZM1317.5 700.076C1319.22 700.076 1320.64 699.635 1321.75 698.753C1322.86 697.871 1323.68 696.711 1324.21 695.273C1324.75 693.836 1325.02 692.278 1325.02 690.601C1325.02 688.924 1324.75 687.362 1324.21 685.913C1323.68 684.465 1322.86 683.294 1321.75 682.401C1320.64 681.508 1319.22 681.062 1317.5 681.062C1315.78 681.062 1314.36 681.508 1313.25 682.401C1312.14 683.294 1311.32 684.465 1310.79 685.913C1310.25 687.362 1309.99 688.924 1309.99 690.601C1309.99 692.278 1310.25 693.836 1310.79 695.273C1311.32 696.711 1312.14 697.871 1313.25 698.753C1314.36 699.635 1315.78 700.076 1317.5 700.076ZM1338.61 669.562V703.016H1334.75V669.562H1338.61ZM1368.8 703.539C1366.54 703.539 1364.55 703 1362.84 701.922C1361.14 700.844 1359.81 699.335 1358.85 697.397C1357.91 695.458 1357.43 693.193 1357.43 690.601C1357.43 687.988 1357.91 685.706 1358.85 683.757C1359.81 681.808 1361.14 680.294 1362.84 679.216C1364.55 678.138 1366.54 677.598 1368.8 677.598C1371.07 677.598 1373.05 678.138 1374.75 679.216C1376.46 680.294 1377.79 681.808 1378.73 683.757C1379.69 685.706 1380.17 687.988 1380.17 690.601C1380.17 693.193 1379.69 695.458 1378.73 697.397C1377.79 699.335 1376.46 700.844 1374.75 701.922C1373.05 703 1371.07 703.539 1368.8 703.539ZM1368.8 700.076C1370.52 700.076 1371.94 699.635 1373.05 698.753C1374.16 697.871 1374.98 696.711 1375.52 695.273C1376.05 693.836 1376.32 692.278 1376.32 690.601C1376.32 688.924 1376.05 687.362 1375.52 685.913C1374.98 684.465 1374.16 683.294 1373.05 682.401C1371.94 681.508 1370.52 681.062 1368.8 681.062C1367.08 681.062 1365.67 681.508 1364.55 682.401C1363.44 683.294 1362.62 684.465 1362.09 685.913C1361.55 687.362 1361.29 688.924 1361.29 690.601C1361.29 692.278 1361.55 693.836 1362.09 695.273C1362.62 696.711 1363.44 697.871 1364.55 698.753C1365.67 699.635 1367.08 700.076 1368.8 700.076ZM1397.23 677.925V681.192H1383.7V677.925H1397.23ZM1387.75 703.016V674.462C1387.75 673.025 1388.09 671.827 1388.77 670.868C1389.44 669.91 1390.32 669.191 1391.4 668.712C1392.48 668.233 1393.61 667.993 1394.81 667.993C1395.76 667.993 1396.53 668.07 1397.13 668.222C1397.73 668.375 1398.18 668.516 1398.47 668.647L1397.36 671.979C1397.16 671.914 1396.89 671.832 1396.54 671.734C1396.21 671.636 1395.76 671.587 1395.2 671.587C1393.93 671.587 1393.01 671.908 1392.44 672.551C1391.89 673.193 1391.61 674.135 1391.61 675.377V703.016H1387.75ZM1418.05 712.425C1417.4 712.425 1416.82 712.371 1416.3 712.262C1415.79 712.164 1415.44 712.066 1415.24 711.968L1416.22 708.57C1417.16 708.81 1417.99 708.897 1418.71 708.831C1419.42 708.766 1420.06 708.445 1420.62 707.868C1421.18 707.301 1421.7 706.381 1422.17 705.107L1422.89 703.147L1413.61 677.925H1417.79L1424.72 697.92H1424.98L1431.9 677.925H1436.09L1425.44 706.675C1424.96 707.971 1424.36 709.044 1423.66 709.893C1422.95 710.754 1422.13 711.391 1421.19 711.804C1420.26 712.218 1419.22 712.425 1418.05 712.425ZM1450.47 703.539C1448.2 703.539 1446.22 703 1444.51 701.922C1442.81 700.844 1441.48 699.335 1440.52 697.397C1439.57 695.458 1439.1 693.193 1439.1 690.601C1439.1 687.988 1439.57 685.706 1440.52 683.757C1441.48 681.808 1442.81 680.294 1444.51 679.216C1446.22 678.138 1448.2 677.598 1450.47 677.598C1452.73 677.598 1454.72 678.138 1456.42 679.216C1458.13 680.294 1459.45 681.808 1460.4 683.757C1461.36 685.706 1461.84 687.988 1461.84 690.601C1461.84 693.193 1461.36 695.458 1460.4 697.397C1459.45 699.335 1458.13 700.844 1456.42 701.922C1454.72 703 1452.73 703.539 1450.47 703.539ZM1450.47 700.076C1452.19 700.076 1453.61 699.635 1454.72 698.753C1455.83 697.871 1456.65 696.711 1457.18 695.273C1457.72 693.836 1457.98 692.278 1457.98 690.601C1457.98 688.924 1457.72 687.362 1457.18 685.913C1456.65 684.465 1455.83 683.294 1454.72 682.401C1453.61 681.508 1452.19 681.062 1450.47 681.062C1448.75 681.062 1447.33 681.508 1446.22 682.401C1445.11 683.294 1444.29 684.465 1443.76 685.913C1443.22 687.362 1442.96 688.924 1442.96 690.601C1442.96 692.278 1443.22 693.836 1443.76 695.273C1444.29 696.711 1445.11 697.871 1446.22 698.753C1447.33 699.635 1448.75 700.076 1450.47 700.076ZM1483.54 692.758V677.925H1487.39V703.016H1483.54V698.769H1483.27C1482.69 700.043 1481.77 701.127 1480.53 702.02C1479.29 702.902 1477.72 703.343 1475.83 703.343C1474.26 703.343 1472.86 703 1471.64 702.314C1470.42 701.617 1469.47 700.571 1468.77 699.177C1468.07 697.773 1467.72 696.003 1467.72 693.868V677.925H1471.58V693.607C1471.58 695.437 1472.09 696.896 1473.11 697.985C1474.15 699.074 1475.47 699.618 1477.07 699.618C1478.03 699.618 1479 699.373 1479.99 698.883C1480.99 698.393 1481.83 697.642 1482.51 696.629C1483.19 695.616 1483.54 694.326 1483.54 692.758ZM1494.45 703.016V677.925H1498.18V681.715H1498.44C1498.9 680.473 1499.72 679.466 1500.92 678.693C1502.12 677.92 1503.47 677.533 1504.97 677.533C1505.26 677.533 1505.61 677.539 1506.03 677.549C1506.46 677.56 1506.78 677.577 1507 677.598V681.519C1506.87 681.486 1506.57 681.437 1506.1 681.372C1505.64 681.296 1505.16 681.258 1504.65 681.258C1503.43 681.258 1502.34 681.514 1501.38 682.025C1500.43 682.526 1499.68 683.223 1499.12 684.116C1498.58 684.998 1498.31 686.006 1498.31 687.138V703.016H1494.45ZM1534.63 712.948C1532.77 712.948 1531.17 712.708 1529.83 712.229C1528.49 711.761 1527.37 711.14 1526.48 710.367C1525.6 709.605 1524.9 708.788 1524.37 707.917L1527.45 705.76C1527.79 706.218 1528.23 706.741 1528.77 707.329C1529.3 707.928 1530.03 708.445 1530.96 708.88C1531.89 709.327 1533.12 709.55 1534.63 709.55C1536.66 709.55 1538.33 709.06 1539.65 708.08C1540.97 707.1 1541.62 705.564 1541.62 703.473V698.377H1541.3C1541.01 698.834 1540.61 699.401 1540.09 700.076C1539.58 700.74 1538.84 701.334 1537.87 701.856C1536.91 702.368 1535.61 702.624 1533.98 702.624C1531.95 702.624 1530.14 702.145 1528.52 701.187C1526.92 700.228 1525.65 698.834 1524.72 697.005C1523.79 695.175 1523.33 692.954 1523.33 690.34C1523.33 687.77 1523.78 685.532 1524.68 683.626C1525.59 681.71 1526.85 680.228 1528.46 679.183C1530.07 678.127 1531.93 677.598 1534.04 677.598C1535.68 677.598 1536.97 677.871 1537.93 678.415C1538.9 678.949 1539.64 679.559 1540.15 680.245C1540.68 680.92 1541.08 681.475 1541.36 681.911H1541.75V677.925H1545.48V703.735C1545.48 705.891 1544.99 707.644 1544.01 708.995C1543.04 710.356 1541.73 711.353 1540.09 711.984C1538.46 712.627 1536.64 712.948 1534.63 712.948ZM1534.5 699.161C1536.05 699.161 1537.36 698.807 1538.42 698.099C1539.49 697.391 1540.3 696.373 1540.86 695.045C1541.41 693.716 1541.69 692.126 1541.69 690.275C1541.69 688.467 1541.42 686.871 1540.87 685.488C1540.33 684.105 1539.52 683.022 1538.46 682.238C1537.39 681.454 1536.07 681.062 1534.5 681.062C1532.87 681.062 1531.51 681.475 1530.42 682.303C1529.34 683.131 1528.53 684.241 1527.98 685.635C1527.45 687.029 1527.18 688.576 1527.18 690.275C1527.18 692.017 1527.46 693.558 1528 694.898C1528.56 696.226 1529.37 697.272 1530.45 698.034C1531.54 698.785 1532.89 699.161 1534.5 699.161ZM1559.92 703.604C1558.33 703.604 1556.89 703.305 1555.59 702.706C1554.29 702.096 1553.27 701.219 1552.5 700.076C1551.74 698.921 1551.36 697.527 1551.36 695.894C1551.36 694.456 1551.64 693.291 1552.21 692.398C1552.78 691.494 1553.53 690.786 1554.48 690.275C1555.43 689.763 1556.47 689.382 1557.62 689.131C1558.77 688.87 1559.93 688.663 1561.1 688.51C1562.62 688.314 1563.86 688.167 1564.8 688.069C1565.76 687.96 1566.46 687.781 1566.89 687.53C1567.34 687.28 1567.56 686.844 1567.56 686.223V686.093C1567.56 684.481 1567.12 683.229 1566.24 682.336C1565.37 681.443 1564.05 680.996 1562.27 680.996C1560.43 680.996 1558.99 681.399 1557.94 682.205C1556.9 683.011 1556.16 683.871 1555.74 684.786L1552.08 683.479C1552.73 681.955 1553.6 680.768 1554.69 679.918C1555.79 679.058 1556.99 678.459 1558.29 678.121C1559.59 677.773 1560.88 677.598 1562.14 677.598C1562.95 677.598 1563.87 677.697 1564.92 677.893C1565.97 678.078 1566.99 678.464 1567.97 679.052C1568.96 679.64 1569.79 680.528 1570.44 681.715C1571.09 682.902 1571.42 684.492 1571.42 686.485V703.016H1567.56V699.618H1567.37C1567.11 700.163 1566.67 700.746 1566.06 701.366C1565.45 701.987 1564.64 702.515 1563.63 702.951C1562.62 703.386 1561.38 703.604 1559.92 703.604ZM1560.51 700.141C1562.03 700.141 1563.32 699.842 1564.36 699.243C1565.42 698.644 1566.21 697.871 1566.75 696.923C1567.29 695.976 1567.56 694.979 1567.56 693.934V690.405C1567.4 690.601 1567.04 690.781 1566.49 690.944C1565.94 691.097 1565.31 691.233 1564.59 691.353C1563.88 691.462 1563.19 691.56 1562.52 691.647C1561.85 691.723 1561.31 691.788 1560.9 691.843C1559.9 691.973 1558.96 692.186 1558.09 692.48C1557.23 692.763 1556.53 693.193 1556 693.77C1555.48 694.337 1555.22 695.11 1555.22 696.09C1555.22 697.429 1555.71 698.442 1556.7 699.128C1557.7 699.804 1558.97 700.141 1560.51 700.141ZM1582.31 669.562V703.016H1578.46V669.562H1582.31ZM1596.76 703.604C1595.17 703.604 1593.72 703.305 1592.43 702.706C1591.13 702.096 1590.1 701.219 1589.34 700.076C1588.58 698.921 1588.2 697.527 1588.2 695.894C1588.2 694.456 1588.48 693.291 1589.05 692.398C1589.61 691.494 1590.37 690.786 1591.32 690.275C1592.26 689.763 1593.31 689.382 1594.45 689.131C1595.61 688.87 1596.77 688.663 1597.93 688.51C1599.46 688.314 1600.69 688.167 1601.64 688.069C1602.6 687.96 1603.3 687.781 1603.73 687.53C1604.18 687.28 1604.4 686.844 1604.4 686.223V686.093C1604.4 684.481 1603.96 683.229 1603.08 682.336C1602.21 681.443 1600.88 680.996 1599.11 680.996C1597.27 680.996 1595.82 681.399 1594.78 682.205C1593.73 683.011 1593 683.871 1592.57 684.786L1588.91 683.479C1589.57 681.955 1590.44 680.768 1591.53 679.918C1592.63 679.058 1593.83 678.459 1595.12 678.121C1596.43 677.773 1597.71 677.598 1598.98 677.598C1599.78 677.598 1600.71 677.697 1601.75 677.893C1602.81 678.078 1603.83 678.464 1604.81 679.052C1605.8 679.64 1606.62 680.528 1607.28 681.715C1607.93 682.902 1608.26 684.492 1608.26 686.485V703.016H1604.4V699.618H1604.2C1603.94 700.163 1603.51 700.746 1602.9 701.366C1602.29 701.987 1601.48 702.515 1600.46 702.951C1599.45 703.386 1598.21 703.604 1596.76 703.604ZM1597.34 700.141C1598.87 700.141 1600.15 699.842 1601.2 699.243C1602.26 698.644 1603.05 697.871 1603.58 696.923C1604.13 695.976 1604.4 694.979 1604.4 693.934V690.405C1604.24 690.601 1603.88 690.781 1603.32 690.944C1602.78 691.097 1602.15 691.233 1601.43 691.353C1600.72 691.462 1600.03 691.56 1599.35 691.647C1598.69 691.723 1598.15 691.788 1597.74 691.843C1596.73 691.973 1595.8 692.186 1594.93 692.48C1594.07 692.763 1593.37 693.193 1592.84 693.77C1592.31 694.337 1592.05 695.11 1592.05 696.09C1592.05 697.429 1592.55 698.442 1593.54 699.128C1594.54 699.804 1595.81 700.141 1597.34 700.141ZM1618.17 677.925L1624.18 688.184L1630.19 677.925H1634.63L1626.53 690.471L1634.63 703.016H1630.19L1624.18 693.28L1618.17 703.016H1613.72L1621.7 690.471L1613.72 677.925H1618.17ZM1642.62 712.425C1641.96 712.425 1641.38 712.371 1640.87 712.262C1640.36 712.164 1640 712.066 1639.81 711.968L1640.79 708.57C1641.72 708.81 1642.55 708.897 1643.27 708.831C1643.99 708.766 1644.63 708.445 1645.18 707.868C1645.75 707.301 1646.27 706.381 1646.73 705.107L1647.45 703.147L1638.17 677.925H1642.36L1649.28 697.92H1649.54L1656.47 677.925H1660.65L1650 706.675C1649.52 707.971 1648.93 709.044 1648.22 709.893C1647.51 710.754 1646.69 711.391 1645.75 711.804C1644.83 712.218 1643.78 712.425 1642.62 712.425Z" fill="#FF00D6"/>
<path d="M839.688 97.448C837.021 97.448 834.888 96.68 833.288 95.144C831.709 93.5867 830.92 91.3253 830.92 88.36V83.24C830.92 80.2747 831.709 78.024 833.288 76.488C834.888 74.9307 837.021 74.152 839.688 74.152C842.376 74.152 844.509 74.9307 846.088 76.488C847.688 78.024 848.488 80.2747 848.488 83.24V88.36C848.488 91.3253 847.688 93.5867 846.088 95.144C844.509 96.68 842.376 97.448 839.688 97.448ZM839.688 95.048C841.629 95.048 843.133 94.472 844.2 93.32C845.267 92.1467 845.8 90.5253 845.8 88.456V83.144C845.8 81.0747 845.267 79.464 844.2 78.312C843.133 77.1387 841.629 76.552 839.688 76.552C837.768 76.552 836.275 77.1387 835.208 78.312C834.141 79.464 833.608 81.0747 833.608 83.144V88.456C833.608 90.5253 834.141 92.1467 835.208 93.32C836.275 94.472 837.768 95.048 839.688 95.048ZM853.466 97V74.6H862.042C863.386 74.6 864.581 74.8667 865.626 75.4C866.693 75.912 867.536 76.648 868.154 77.608C868.773 78.568 869.082 79.7307 869.082 81.096V81.512C869.082 82.856 868.762 84.0187 868.122 85C867.504 85.96 866.661 86.696 865.594 87.208C864.528 87.72 863.344 87.976 862.042 87.976H856.154V97H853.466ZM856.154 85.544H861.754C863.184 85.544 864.314 85.192 865.146 84.488C865.978 83.7627 866.394 82.7493 866.394 81.448V81.128C866.394 79.8267 865.978 78.824 865.146 78.12C864.336 77.3947 863.205 77.032 861.754 77.032H856.154V85.544ZM873.185 97V74.6H886.977V77.032H875.873V84.52H886.081V86.952H875.873V94.568H887.137V97H873.185ZM891.716 97V74.6H896.932L904.74 95.304H905.156V74.6H907.812V97H902.596L894.82 76.264H894.372V97H891.716ZM929.61 97.448C927.988 97.448 926.538 97.16 925.258 96.584C923.978 96.008 922.964 95.144 922.218 93.992C921.492 92.8187 921.13 91.3573 921.13 89.608V88.936H923.786V89.608C923.786 91.464 924.33 92.8507 925.418 93.768C926.506 94.664 927.903 95.112 929.61 95.112C931.359 95.112 932.692 94.7173 933.61 93.928C934.527 93.1387 934.986 92.1467 934.986 90.952C934.986 90.12 934.772 89.4587 934.346 88.968C933.94 88.4773 933.364 88.0827 932.618 87.784C931.871 87.464 930.996 87.1867 929.994 86.952L928.33 86.536C927.028 86.1947 925.876 85.7787 924.874 85.288C923.871 84.7973 923.082 84.1573 922.506 83.368C921.951 82.5573 921.674 81.5227 921.674 80.264C921.674 79.0053 921.983 77.9173 922.602 77C923.242 76.0827 924.127 75.3787 925.258 74.888C926.41 74.3973 927.732 74.152 929.226 74.152C930.74 74.152 932.095 74.4187 933.29 74.952C934.506 75.464 935.455 76.232 936.138 77.256C936.842 78.2587 937.194 79.528 937.194 81.064V82.408H934.538V81.064C934.538 79.976 934.303 79.1013 933.834 78.44C933.386 77.7787 932.756 77.288 931.946 76.968C931.156 76.648 930.25 76.488 929.226 76.488C927.754 76.488 926.57 76.8187 925.674 77.48C924.778 78.12 924.33 79.0373 924.33 80.232C924.33 81.0213 924.522 81.6613 924.906 82.152C925.29 82.6427 925.834 83.048 926.538 83.368C927.242 83.6667 928.084 83.9333 929.066 84.168L930.73 84.584C932.031 84.8613 933.194 85.2453 934.218 85.736C935.263 86.2053 936.095 86.856 936.714 87.688C937.332 88.4987 937.642 89.5653 937.642 90.888C937.642 92.2107 937.311 93.3627 936.65 94.344C935.988 95.3253 935.05 96.0933 933.834 96.648C932.639 97.1813 931.231 97.448 929.61 97.448ZM950.407 97.448C947.74 97.448 945.607 96.68 944.007 95.144C942.428 93.5867 941.639 91.3253 941.639 88.36V83.24C941.639 80.2747 942.428 78.024 944.007 76.488C945.607 74.9307 947.74 74.152 950.407 74.152C953.095 74.152 955.228 74.9307 956.807 76.488C958.407 78.024 959.207 80.2747 959.207 83.24V88.36C959.207 91.3253 958.407 93.5867 956.807 95.144C955.228 96.68 953.095 97.448 950.407 97.448ZM950.407 95.048C952.348 95.048 953.852 94.472 954.919 93.32C955.985 92.1467 956.519 90.5253 956.519 88.456V83.144C956.519 81.0747 955.985 79.464 954.919 78.312C953.852 77.1387 952.348 76.552 950.407 76.552C948.487 76.552 946.993 77.1387 945.927 78.312C944.86 79.464 944.327 81.0747 944.327 83.144V88.456C944.327 90.5253 944.86 92.1467 945.927 93.32C946.993 94.472 948.487 95.048 950.407 95.048ZM972.281 97.448C970.617 97.448 969.166 97.1493 967.929 96.552C966.692 95.9547 965.732 95.0693 965.049 93.896C964.366 92.7013 964.025 91.24 964.025 89.512V74.6H966.681V89.544C966.681 91.3787 967.172 92.7547 968.153 93.672C969.134 94.5893 970.51 95.048 972.281 95.048C974.052 95.048 975.428 94.5893 976.409 93.672C977.39 92.7547 977.881 91.3787 977.881 89.544V74.6H980.569V89.512C980.569 91.24 980.228 92.7013 979.545 93.896C978.862 95.0693 977.892 95.9547 976.633 96.552C975.396 97.1493 973.945 97.448 972.281 97.448ZM985.998 97V74.6H995.054C996.44 74.6 997.656 74.8453 998.702 75.336C999.768 75.8053 1000.6 76.488 1001.2 77.384C1001.79 78.2587 1002.09 79.3147 1002.09 80.552V80.904C1002.09 82.376 1001.74 83.5387 1001.04 84.392C1000.33 85.2453 999.502 85.8213 998.542 86.12V86.568C999.31 86.5893 999.939 86.8453 1000.43 87.336C1000.94 87.8053 1001.2 88.52 1001.2 89.48V97H998.542V89.8C998.542 89.16 998.36 88.6693 997.998 88.328C997.656 87.9867 997.134 87.816 996.43 87.816H988.686V97H985.998ZM988.686 85.384H994.798C996.27 85.384 997.4 85.032 998.19 84.328C999 83.6027 999.406 82.6 999.406 81.32V81.096C999.406 79.816 999.011 78.824 998.222 78.12C997.432 77.3947 996.291 77.032 994.798 77.032H988.686V85.384ZM1014.78 97.448C1012.11 97.448 1009.99 96.68 1008.41 95.144C1006.83 93.5867 1006.05 91.3253 1006.05 88.36V83.24C1006.05 80.2747 1006.83 78.024 1008.41 76.488C1009.99 74.9307 1012.11 74.152 1014.78 74.152C1017.43 74.152 1019.45 74.888 1020.86 76.36C1022.29 77.832 1023.01 79.848 1023.01 82.408V82.568H1020.35V82.312C1020.35 80.6267 1019.89 79.2507 1018.97 78.184C1018.08 77.096 1016.68 76.552 1014.78 76.552C1012.88 76.552 1011.4 77.1387 1010.33 78.312C1009.27 79.464 1008.73 81.0853 1008.73 83.176V88.424C1008.73 90.5147 1009.27 92.1467 1010.33 93.32C1011.4 94.472 1012.88 95.048 1014.78 95.048C1016.68 95.048 1018.08 94.5147 1018.97 93.448C1019.89 92.36 1020.35 90.9733 1020.35 89.288V88.776H1023.01V89.192C1023.01 91.752 1022.29 93.768 1020.86 95.24C1019.45 96.712 1017.43 97.448 1014.78 97.448ZM1027.72 97V74.6H1041.51V77.032H1030.4V84.52H1040.61V86.952H1030.4V94.568H1041.67V97H1027.72Z" fill="white"/>
<path d="M1094.8 97L1101.71 74.6H1106.45L1113.36 97H1110.58L1108.85 91.336H1099.31L1097.58 97H1094.8ZM1099.98 88.904H1108.14L1104.3 76.232H1103.86L1099.98 88.904ZM1125.03 97.448C1122.37 97.448 1120.23 96.68 1118.63 95.144C1117.05 93.5867 1116.26 91.3253 1116.26 88.36V83.24C1116.26 80.2747 1117.05 78.024 1118.63 76.488C1120.23 74.9307 1122.37 74.152 1125.03 74.152C1127.72 74.152 1129.85 74.9307 1131.43 76.488C1133.03 78.024 1133.83 80.2747 1133.83 83.24V88.36C1133.83 91.3253 1133.03 93.5867 1131.43 95.144C1129.85 96.68 1127.72 97.448 1125.03 97.448ZM1125.03 95.048C1126.97 95.048 1128.48 94.472 1129.54 93.32C1130.61 92.1467 1131.14 90.5253 1131.14 88.456V83.144C1131.14 81.0747 1130.61 79.464 1129.54 78.312C1128.48 77.1387 1126.97 76.552 1125.03 76.552C1123.11 76.552 1121.62 77.1387 1120.55 78.312C1119.49 79.464 1118.95 81.0747 1118.95 83.144V88.456C1118.95 90.5253 1119.49 92.1467 1120.55 93.32C1121.62 94.472 1123.11 95.048 1125.03 95.048ZM1146.27 97.448C1144.64 97.448 1143.19 97.16 1141.91 96.584C1140.63 96.008 1139.62 95.144 1138.87 93.992C1138.15 92.8187 1137.79 91.3573 1137.79 89.608V88.936H1140.44V89.608C1140.44 91.464 1140.99 92.8507 1142.07 93.768C1143.16 94.664 1144.56 95.112 1146.27 95.112C1148.02 95.112 1149.35 94.7173 1150.27 93.928C1151.18 93.1387 1151.64 92.1467 1151.64 90.952C1151.64 90.12 1151.43 89.4587 1151 88.968C1150.6 88.4773 1150.02 88.0827 1149.27 87.784C1148.53 87.464 1147.65 87.1867 1146.65 86.952L1144.99 86.536C1143.68 86.1947 1142.53 85.7787 1141.53 85.288C1140.53 84.7973 1139.74 84.1573 1139.16 83.368C1138.61 82.5573 1138.33 81.5227 1138.33 80.264C1138.33 79.0053 1138.64 77.9173 1139.26 77C1139.9 76.0827 1140.78 75.3787 1141.91 74.888C1143.07 74.3973 1144.39 74.152 1145.88 74.152C1147.4 74.152 1148.75 74.4187 1149.95 74.952C1151.16 75.464 1152.11 76.232 1152.79 77.256C1153.5 78.2587 1153.85 79.528 1153.85 81.064V82.408H1151.19V81.064C1151.19 79.976 1150.96 79.1013 1150.49 78.44C1150.04 77.7787 1149.41 77.288 1148.6 76.968C1147.81 76.648 1146.91 76.488 1145.88 76.488C1144.41 76.488 1143.23 76.8187 1142.33 77.48C1141.43 78.12 1140.99 79.0373 1140.99 80.232C1140.99 81.0213 1141.18 81.6613 1141.56 82.152C1141.95 82.6427 1142.49 83.048 1143.19 83.368C1143.9 83.6667 1144.74 83.9333 1145.72 84.168L1147.39 84.584C1148.69 84.8613 1149.85 85.2453 1150.87 85.736C1151.92 86.2053 1152.75 86.856 1153.37 87.688C1153.99 88.4987 1154.3 89.5653 1154.3 90.888C1154.3 92.2107 1153.97 93.3627 1153.31 94.344C1152.64 95.3253 1151.71 96.0933 1150.49 96.648C1149.3 97.1813 1147.89 97.448 1146.27 97.448ZM1158.94 97V74.6H1167.51C1168.86 74.6 1170.05 74.8667 1171.1 75.4C1172.16 75.912 1173 76.648 1173.62 77.608C1174.24 78.568 1174.55 79.7307 1174.55 81.096V81.512C1174.55 82.856 1174.23 84.0187 1173.59 85C1172.97 85.96 1172.13 86.696 1171.06 87.208C1170 87.72 1168.81 87.976 1167.51 87.976H1161.62V97H1158.94ZM1161.62 85.544H1167.22C1168.65 85.544 1169.78 85.192 1170.62 84.488C1171.45 83.7627 1171.86 82.7493 1171.86 81.448V81.128C1171.86 79.8267 1171.45 78.824 1170.62 78.12C1169.8 77.3947 1168.67 77.032 1167.22 77.032H1161.62V85.544Z" fill="white"/>
<path d="M1226.8 97L1233.71 74.6H1238.45L1245.36 97H1242.58L1240.85 91.336H1231.31L1229.58 97H1226.8ZM1231.98 88.904H1240.14L1236.3 76.232H1235.86L1231.98 88.904ZM1249.22 97V74.6H1254.43L1262.24 95.304H1262.66V74.6H1265.31V97H1260.1L1252.32 76.264H1251.87V97H1249.22ZM1269.91 97V94.6H1273.05V77H1269.91V74.6H1278.65C1281.59 74.6 1283.86 75.3467 1285.46 76.84C1287.08 78.3333 1287.89 80.6267 1287.89 83.72V87.88C1287.89 90.9947 1287.08 93.2987 1285.46 94.792C1283.86 96.264 1281.59 97 1278.65 97H1269.91ZM1275.73 94.568H1278.65C1280.82 94.568 1282.46 94.0347 1283.57 92.968C1284.68 91.9013 1285.24 90.248 1285.24 88.008V83.624C1285.24 81.3413 1284.68 79.6773 1283.57 78.632C1282.46 77.5867 1280.82 77.064 1278.65 77.064H1275.73V94.568ZM1292.69 97V74.6H1301.74C1303.13 74.6 1304.34 74.8453 1305.39 75.336C1306.46 75.8053 1307.29 76.488 1307.89 77.384C1308.48 78.2587 1308.78 79.3147 1308.78 80.552V80.904C1308.78 82.376 1308.43 83.5387 1307.73 84.392C1307.02 85.2453 1306.19 85.8213 1305.23 86.12V86.568C1306 86.5893 1306.63 86.8453 1307.12 87.336C1307.63 87.8053 1307.89 88.52 1307.89 89.48V97H1305.23V89.8C1305.23 89.16 1305.05 88.6693 1304.69 88.328C1304.34 87.9867 1303.82 87.816 1303.12 87.816H1295.37V97H1292.69ZM1295.37 85.384H1301.49C1302.96 85.384 1304.09 85.032 1304.88 84.328C1305.69 83.6027 1306.09 82.6 1306.09 81.32V81.096C1306.09 79.816 1305.7 78.824 1304.91 78.12C1304.12 77.3947 1302.98 77.032 1301.49 77.032H1295.37V85.384ZM1321.5 97.448C1318.83 97.448 1316.7 96.68 1315.1 95.144C1313.52 93.5867 1312.73 91.3253 1312.73 88.36V83.24C1312.73 80.2747 1313.52 78.024 1315.1 76.488C1316.7 74.9307 1318.83 74.152 1321.5 74.152C1324.19 74.152 1326.32 74.9307 1327.9 76.488C1329.5 78.024 1330.3 80.2747 1330.3 83.24V88.36C1330.3 91.3253 1329.5 93.5867 1327.9 95.144C1326.32 96.68 1324.19 97.448 1321.5 97.448ZM1321.5 95.048C1323.44 95.048 1324.95 94.472 1326.01 93.32C1327.08 92.1467 1327.61 90.5253 1327.61 88.456V83.144C1327.61 81.0747 1327.08 79.464 1326.01 78.312C1324.95 77.1387 1323.44 76.552 1321.5 76.552C1319.58 76.552 1318.09 77.1387 1317.02 78.312C1315.95 79.464 1315.42 81.0747 1315.42 83.144V88.456C1315.42 90.5253 1315.95 92.1467 1317.02 93.32C1318.09 94.472 1319.58 95.048 1321.5 95.048ZM1335.28 97V74.6H1337.97V97H1335.28ZM1342.54 97V94.6H1345.67V77H1342.54V74.6H1351.27C1354.22 74.6 1356.49 75.3467 1358.09 76.84C1359.71 78.3333 1360.52 80.6267 1360.52 83.72V87.88C1360.52 90.9947 1359.71 93.2987 1358.09 94.792C1356.49 96.264 1354.22 97 1351.27 97H1342.54ZM1348.36 94.568H1351.27C1353.45 94.568 1355.09 94.0347 1356.2 92.968C1357.31 91.9013 1357.86 90.248 1357.86 88.008V83.624C1357.86 81.3413 1357.31 79.6773 1356.2 78.632C1355.09 77.5867 1353.45 77.064 1351.27 77.064H1348.36V94.568Z" fill="white"/>
<path d="M1432.02 97.448C1430.39 97.448 1428.94 97.16 1427.66 96.584C1426.38 96.008 1425.37 95.144 1424.62 93.992C1423.9 92.8187 1423.54 91.3573 1423.54 89.608V88.936H1426.19V89.608C1426.19 91.464 1426.74 92.8507 1427.82 93.768C1428.91 94.664 1430.31 95.112 1432.02 95.112C1433.77 95.112 1435.1 94.7173 1436.02 93.928C1436.93 93.1387 1437.39 92.1467 1437.39 90.952C1437.39 90.12 1437.18 89.4587 1436.75 88.968C1436.35 88.4773 1435.77 88.0827 1435.02 87.784C1434.28 87.464 1433.4 87.1867 1432.4 86.952L1430.74 86.536C1429.43 86.1947 1428.28 85.7787 1427.28 85.288C1426.28 84.7973 1425.49 84.1573 1424.91 83.368C1424.36 82.5573 1424.08 81.5227 1424.08 80.264C1424.08 79.0053 1424.39 77.9173 1425.01 77C1425.65 76.0827 1426.53 75.3787 1427.66 74.888C1428.82 74.3973 1430.14 74.152 1431.63 74.152C1433.15 74.152 1434.5 74.4187 1435.7 74.952C1436.91 75.464 1437.86 76.232 1438.54 77.256C1439.25 78.2587 1439.6 79.528 1439.6 81.064V82.408H1436.94V81.064C1436.94 79.976 1436.71 79.1013 1436.24 78.44C1435.79 77.7787 1435.16 77.288 1434.35 76.968C1433.56 76.648 1432.66 76.488 1431.63 76.488C1430.16 76.488 1428.98 76.8187 1428.08 77.48C1427.18 78.12 1426.74 79.0373 1426.74 80.232C1426.74 81.0213 1426.93 81.6613 1427.31 82.152C1427.7 82.6427 1428.24 83.048 1428.94 83.368C1429.65 83.6667 1430.49 83.9333 1431.47 84.168L1433.14 84.584C1434.44 84.8613 1435.6 85.2453 1436.62 85.736C1437.67 86.2053 1438.5 86.856 1439.12 87.688C1439.74 88.4987 1440.05 89.5653 1440.05 90.888C1440.05 92.2107 1439.72 93.3627 1439.06 94.344C1438.39 95.3253 1437.46 96.0933 1436.24 96.648C1435.05 97.1813 1433.64 97.448 1432.02 97.448ZM1444.69 97V74.6H1458.48V77.032H1447.37V84.52H1457.58V86.952H1447.37V94.568H1458.64V97H1444.69ZM1471.31 97.448C1468.65 97.448 1466.52 96.68 1464.94 95.144C1463.37 93.5867 1462.58 91.3253 1462.58 88.36V83.24C1462.58 80.2747 1463.37 78.024 1464.94 76.488C1466.52 74.9307 1468.65 74.152 1471.31 74.152C1473.96 74.152 1475.98 74.888 1477.39 76.36C1478.82 77.832 1479.54 79.848 1479.54 82.408V82.568H1476.88V82.312C1476.88 80.6267 1476.42 79.2507 1475.5 78.184C1474.61 77.096 1473.21 76.552 1471.31 76.552C1469.41 76.552 1467.93 77.1387 1466.86 78.312C1465.8 79.464 1465.26 81.0853 1465.26 83.176V88.424C1465.26 90.5147 1465.8 92.1467 1466.86 93.32C1467.93 94.472 1469.41 95.048 1471.31 95.048C1473.21 95.048 1474.61 94.5147 1475.5 93.448C1476.42 92.36 1476.88 90.9733 1476.88 89.288V88.776H1479.54V89.192C1479.54 91.752 1478.82 93.768 1477.39 95.24C1475.98 96.712 1473.96 97.448 1471.31 97.448ZM1492.34 97.448C1490.68 97.448 1489.23 97.1493 1487.99 96.552C1486.75 95.9547 1485.79 95.0693 1485.11 93.896C1484.43 92.7013 1484.09 91.24 1484.09 89.512V74.6H1486.74V89.544C1486.74 91.3787 1487.23 92.7547 1488.22 93.672C1489.2 94.5893 1490.57 95.048 1492.34 95.048C1494.11 95.048 1495.49 94.5893 1496.47 93.672C1497.45 92.7547 1497.94 91.3787 1497.94 89.544V74.6H1500.63V89.512C1500.63 91.24 1500.29 92.7013 1499.61 93.896C1498.92 95.0693 1497.95 95.9547 1496.7 96.552C1495.46 97.1493 1494.01 97.448 1492.34 97.448ZM1506.06 97V74.6H1515.12C1516.5 74.6 1517.72 74.8453 1518.76 75.336C1519.83 75.8053 1520.66 76.488 1521.26 77.384C1521.86 78.2587 1522.16 79.3147 1522.16 80.552V80.904C1522.16 82.376 1521.8 83.5387 1521.1 84.392C1520.4 85.2453 1519.56 85.8213 1518.6 86.12V86.568C1519.37 86.5893 1520 86.8453 1520.49 87.336C1521 87.8053 1521.26 88.52 1521.26 89.48V97H1518.6V89.8C1518.6 89.16 1518.42 88.6693 1518.06 88.328C1517.72 87.9867 1517.2 87.816 1516.49 87.816H1508.75V97H1506.06ZM1508.75 85.384H1514.86C1516.33 85.384 1517.46 85.032 1518.25 84.328C1519.06 83.6027 1519.47 82.6 1519.47 81.32V81.096C1519.47 79.816 1519.07 78.824 1518.28 78.12C1517.49 77.3947 1516.35 77.032 1514.86 77.032H1508.75V85.384ZM1526.75 97V74.6H1529.44V97H1526.75ZM1540.56 97V77.032H1533.36V74.6H1550.45V77.032H1543.25V97H1540.56ZM1560.23 97V88.456L1552.26 74.6H1555.33L1561.35 85.352H1561.8L1567.81 74.6H1570.88L1562.92 88.456V97H1560.23Z" fill="white"/>
<path d="M1632.66 97.448C1629.99 97.448 1627.87 96.68 1626.29 95.144C1624.71 93.5867 1623.92 91.3253 1623.92 88.36V83.24C1623.92 80.2747 1624.71 78.024 1626.29 76.488C1627.87 74.9307 1629.99 74.152 1632.66 74.152C1635.3 74.152 1637.33 74.888 1638.74 76.36C1640.17 77.832 1640.88 79.848 1640.88 82.408V82.568H1638.22V82.312C1638.22 80.6267 1637.77 79.2507 1636.85 78.184C1635.95 77.096 1634.55 76.552 1632.66 76.552C1630.76 76.552 1629.27 77.1387 1628.21 78.312C1627.14 79.464 1626.61 81.0853 1626.61 83.176V88.424C1626.61 90.5147 1627.14 92.1467 1628.21 93.32C1629.27 94.472 1630.76 95.048 1632.66 95.048C1634.55 95.048 1635.95 94.5147 1636.85 93.448C1637.77 92.36 1638.22 90.9733 1638.22 89.288V88.776H1640.88V89.192C1640.88 91.752 1640.17 93.768 1638.74 95.24C1637.33 96.712 1635.3 97.448 1632.66 97.448ZM1653.69 97.448C1652.02 97.448 1650.57 97.1493 1649.34 96.552C1648.1 95.9547 1647.14 95.0693 1646.46 93.896C1645.77 92.7013 1645.43 91.24 1645.43 89.512V74.6H1648.09V89.544C1648.09 91.3787 1648.58 92.7547 1649.56 93.672C1650.54 94.5893 1651.92 95.048 1653.69 95.048C1655.46 95.048 1656.83 94.5893 1657.82 93.672C1658.8 92.7547 1659.29 91.3787 1659.29 89.544V74.6H1661.98V89.512C1661.98 91.24 1661.63 92.7013 1660.95 93.896C1660.27 95.0693 1659.3 95.9547 1658.04 96.552C1656.8 97.1493 1655.35 97.448 1653.69 97.448ZM1674.86 97.448C1673.24 97.448 1671.79 97.16 1670.51 96.584C1669.23 96.008 1668.21 95.144 1667.47 93.992C1666.74 92.8187 1666.38 91.3573 1666.38 89.608V88.936H1669.04V89.608C1669.04 91.464 1669.58 92.8507 1670.67 93.768C1671.76 94.664 1673.15 95.112 1674.86 95.112C1676.61 95.112 1677.94 94.7173 1678.86 93.928C1679.78 93.1387 1680.24 92.1467 1680.24 90.952C1680.24 90.12 1680.02 89.4587 1679.6 88.968C1679.19 88.4773 1678.61 88.0827 1677.87 87.784C1677.12 87.464 1676.25 87.1867 1675.24 86.952L1673.58 86.536C1672.28 86.1947 1671.13 85.7787 1670.12 85.288C1669.12 84.7973 1668.33 84.1573 1667.76 83.368C1667.2 82.5573 1666.92 81.5227 1666.92 80.264C1666.92 79.0053 1667.23 77.9173 1667.85 77C1668.49 76.0827 1669.38 75.3787 1670.51 74.888C1671.66 74.3973 1672.98 74.152 1674.48 74.152C1675.99 74.152 1677.35 74.4187 1678.54 74.952C1679.76 75.464 1680.71 76.232 1681.39 77.256C1682.09 78.2587 1682.44 79.528 1682.44 81.064V82.408H1679.79V81.064C1679.79 79.976 1679.55 79.1013 1679.08 78.44C1678.64 77.7787 1678.01 77.288 1677.2 76.968C1676.41 76.648 1675.5 76.488 1674.48 76.488C1673 76.488 1671.82 76.8187 1670.92 77.48C1670.03 78.12 1669.58 79.0373 1669.58 80.232C1669.58 81.0213 1669.77 81.6613 1670.16 82.152C1670.54 82.6427 1671.08 83.048 1671.79 83.368C1672.49 83.6667 1673.33 83.9333 1674.32 84.168L1675.98 84.584C1677.28 84.8613 1678.44 85.2453 1679.47 85.736C1680.51 86.2053 1681.35 86.856 1681.96 87.688C1682.58 88.4987 1682.89 89.5653 1682.89 90.888C1682.89 92.2107 1682.56 93.3627 1681.9 94.344C1681.24 95.3253 1680.3 96.0933 1679.08 96.648C1677.89 97.1813 1676.48 97.448 1674.86 97.448ZM1692.06 97V77.032H1684.86V74.6H1701.95V77.032H1694.75V97H1692.06ZM1713 97.448C1710.33 97.448 1708.2 96.68 1706.6 95.144C1705.02 93.5867 1704.23 91.3253 1704.23 88.36V83.24C1704.23 80.2747 1705.02 78.024 1706.6 76.488C1708.2 74.9307 1710.33 74.152 1713 74.152C1715.69 74.152 1717.82 74.9307 1719.4 76.488C1721 78.024 1721.8 80.2747 1721.8 83.24V88.36C1721.8 91.3253 1721 93.5867 1719.4 95.144C1717.82 96.68 1715.69 97.448 1713 97.448ZM1713 95.048C1714.94 95.048 1716.45 94.472 1717.51 93.32C1718.58 92.1467 1719.11 90.5253 1719.11 88.456V83.144C1719.11 81.0747 1718.58 79.464 1717.51 78.312C1716.45 77.1387 1714.94 76.552 1713 76.552C1711.08 76.552 1709.59 77.1387 1708.52 78.312C1707.45 79.464 1706.92 81.0747 1706.92 83.144V88.456C1706.92 90.5253 1707.45 92.1467 1708.52 93.32C1709.59 94.472 1711.08 95.048 1713 95.048ZM1726.78 97V74.6H1731.9L1737.85 95.304H1738.27L1744.22 74.6H1749.34V97H1746.75V76.36H1746.3L1740.38 97H1735.74L1729.82 76.36H1729.37V97H1726.78ZM1763.69 97V74.6H1772.74C1774.13 74.6 1775.34 74.8453 1776.39 75.336C1777.46 75.8053 1778.29 76.488 1778.89 77.384C1779.48 78.2587 1779.78 79.3147 1779.78 80.552V80.904C1779.78 82.376 1779.43 83.5387 1778.73 84.392C1778.02 85.2453 1777.19 85.8213 1776.23 86.12V86.568C1777 86.5893 1777.63 86.8453 1778.12 87.336C1778.63 87.8053 1778.89 88.52 1778.89 89.48V97H1776.23V89.8C1776.23 89.16 1776.05 88.6693 1775.69 88.328C1775.34 87.9867 1774.82 87.816 1774.12 87.816H1766.37V97H1763.69ZM1766.37 85.384H1772.49C1773.96 85.384 1775.09 85.032 1775.88 84.328C1776.69 83.6027 1777.09 82.6 1777.09 81.32V81.096C1777.09 79.816 1776.7 78.824 1775.91 78.12C1775.12 77.3947 1773.98 77.032 1772.49 77.032H1766.37V85.384ZM1792.5 97.448C1789.83 97.448 1787.7 96.68 1786.1 95.144C1784.52 93.5867 1783.73 91.3253 1783.73 88.36V83.24C1783.73 80.2747 1784.52 78.024 1786.1 76.488C1787.7 74.9307 1789.83 74.152 1792.5 74.152C1795.19 74.152 1797.32 74.9307 1798.9 76.488C1800.5 78.024 1801.3 80.2747 1801.3 83.24V88.36C1801.3 91.3253 1800.5 93.5867 1798.9 95.144C1797.32 96.68 1795.19 97.448 1792.5 97.448ZM1792.5 95.048C1794.44 95.048 1795.95 94.472 1797.01 93.32C1798.08 92.1467 1798.61 90.5253 1798.61 88.456V83.144C1798.61 81.0747 1798.08 79.464 1797.01 78.312C1795.95 77.1387 1794.44 76.552 1792.5 76.552C1790.58 76.552 1789.09 77.1387 1788.02 78.312C1786.95 79.464 1786.42 81.0747 1786.42 83.144V88.456C1786.42 90.5253 1786.95 92.1467 1788.02 93.32C1789.09 94.472 1790.58 95.048 1792.5 95.048ZM1806.28 97V74.6H1811.4L1817.35 95.304H1817.77L1823.72 74.6H1828.84V97H1826.25V76.36H1825.8L1819.88 97H1815.24L1809.32 76.36H1808.87V97H1806.28Z" fill="white"/>
</g>
<defs>
<clipPath id="clip0_64_2">
<rect width="2660" height="1103" rx="30" fill="white"/>
</clipPath>
</defs>
</svg>
